<?xml version="1.0" encoding="UTF-8" standalone="no"?>
<!-- Created with Inkscape (http://www.inkscape.org/) -->

<svg
   version="1.1"
   id="svg1"
   width="450.51593"
   height="129.20132"
   viewBox="0 0 450.51594 129.20133"
   sodipodi:docname="versão 4.svg"
   inkscape:export-filename="logo/versão remodelada.png"
   inkscape:export-xdpi="96"
   inkscape:export-ydpi="96"
   xmlns:inkscape="http://www.inkscape.org/namespaces/inkscape"
   xmlns:sodipodi="http://sodipodi.sourceforge.net/DTD/sodipodi-0.dtd"
   xmlns="http://www.w3.org/2000/svg"
   xmlns:svg="http://www.w3.org/2000/svg">
  <defs
     id="defs1" />
  <sodipodi:namedview
     id="namedview1"
     pagecolor="#ffffff"
     bordercolor="#000000"
     borderopacity="0.25"
     inkscape:showpageshadow="2"
     inkscape:pageopacity="0.0"
     inkscape:pagecheckerboard="0"
     inkscape:deskcolor="#d1d1d1"
     showgrid="false"
     showguides="true">
    <inkscape:page
       x="0"
       y="0"
       width="450.51593"
       height="129.20132"
       id="page2"
       margin="0"
       bleed="0" />
  </sodipodi:namedview>
  <g
     id="g2"
     transform="matrix(0.65686513,0,0,0.65686513,-33.417155,-27.291193)">
    <path
       id="path14-3"
       style="fill:#fe3f6c;fill-rule:evenodd;stroke-width:327.809;stroke-linecap:round"
       d="m 156.86394,79.383152 -2.05859,0.91602 C 102.90805,127.97226 57.723191,101.25399 51.393241,97.092132 l -0.51953,0.0879 c 0,0 0.014,0.0297 0.043,0.0879 6.28586,5.075948 18.68296,16.123678 28.54297,31.326168 13.39604,20.65452 22.146309,49.30332 4.44335,80.79101 l 41.511719,-0.61133 C 103.55701,135.07089 139.28986,94.250352 156.86394,79.383152 Z"
       sodipodi:nodetypes="cccccsccc" />
    <circle
       style="fill:#fe3f6c;fill-opacity:1;fill-rule:evenodd;stroke:none;stroke-width:3.77953;stroke-linecap:round;stroke-dasharray:none;stroke-opacity:1"
       id="circle14-5"
       cx="95.676262"
       cy="66.547638"
       r="25" />
  </g>
  <path
     style="font-size:101.534px;font-family:'Bauhaus 93';-inkscape-font-specification:'Bauhaus 93, ';fill:#fe3f6c;fill-rule:evenodd;stroke-width:7.19532;stroke-linecap:round"
     d="M 105.01277,105.55304 H 86.470915 V 77.641096 q 0,-4.26363 -3.51998,-4.26363 -3.4704,0 -3.4704,4.26363 V 105.55304 H 60.938675 V 77.988136 q 0,-9.66754 6.39546,-16.2613 6.39545,-6.64334 15.66638,-6.64334 10.60951,0 17.004965,7.68446 5.00729,5.99884 5.00729,16.7075 z m 41.14903,-22.755914 18.39312,-0.69408 q -0.79323,10.70866 -7.98192,17.59989 -7.18868,6.891224 -17.50073,6.891224 -10.90697,0 -18.4427,-7.585304 -7.48615,-7.58531 -7.48615,-18.59143 0,-10.46078 7.58531,-17.89735 7.5853,-7.43658 18.19481,-7.43658 9.27092,0 16.36046,5.85011 7.08953,5.8501 8.82473,14.92272 l -18.78974,0.69408 q -2.42928,-3.17294 -6.14757,-3.17294 -3.17293,0 -5.2056,2.08224 -2.03266,2.08224 -2.03266,5.25518 0,3.22251 2.13182,5.40391 2.18139,2.18139 5.40391,2.18139 4.70983,0 6.69291,-5.50306 z M 191.17785,37.880239 V 105.55304 H 172.636 V 37.880239 Z m 10.85739,18.938457 h 18.54186 v 27.91194 q 0,4.21405 3.51997,4.21405 3.47041,0 3.47041,-4.21405 v -27.91194 h 18.54185 v 27.5649 q 0,9.61796 -6.39545,16.261304 -6.39546,6.59376 -15.66638,6.59376 -10.55993,0 -17.00496,-7.684464 -5.0073,-5.99883 -5.0073,-16.65792 z m 85.32227,-18.938457 h 18.54185 v 41.198597 q 0,11.35317 -5.94926,18.49228 -3.42082,4.114904 -8.72557,6.544184 -5.25518,2.42928 -10.80782,2.42928 -11.0557,0 -18.64101,-7.436574 -7.5853,-7.43657 -7.5853,-18.24439 0,-10.46078 7.53572,-18.09566 7.53573,-7.63488 17.84778,-7.63488 1.63604,0 4.95771,0.29746 v 20.42579 q -2.28055,-1.78478 -4.5611,-1.78478 -2.87547,0 -4.95771,2.13182 -2.03266,2.08224 -2.03266,5.05687 0,2.87547 2.13181,4.95771 2.13182,2.03266 5.10645,2.03266 7.13911,0 7.13911,-9.86585 z m 76.89417,45.958007 h -28.11024 q -0.64451,-2.13182 -0.64451,-3.9166 0,-2.47885 0.89239,-4.85856 h 9.41966 q -0.99154,-5.50306 -6.19714,-5.50306 -3.4704,0 -5.6518,2.97463 -2.18139,2.92505 -2.18139,7.53573 0,4.80898 2.08224,7.78361 2.13181,2.97463 5.55264,2.97463 2.77632,0 5.35433,-2.77632 l 10.55993,12.691754 q -7.38699,5.80052 -16.41003,5.80052 -11.00613,0 -18.49228,-7.386994 -7.48615,-7.387 -7.48615,-18.29397 0,-10.8574 7.53573,-18.34354 7.5853,-7.48615 18.59143,-7.48615 10.75824,0 18.04608,7.33741 7.33742,7.28784 7.33742,17.99651 0,1.0907 -0.19831,3.4704 z m 34.50568,-16.75708 v 19.43424 h -8.27938 V 105.55304 H 371.93612 V 63.561196 q 0,-7.08954 2.42928,-12.096827 3.07379,-6.39545 9.32051,-10.4112 6.29629,-4.06532 13.08836,-4.06532 l 1.98309,0.0496 v 19.434227 q -0.6445,-0.0496 -0.94197,-0.0496 -3.51997,0 -5.45348,2.33012 -1.88393,2.33013 -1.88393,6.64334 v 1.68562 z m 14.52612,60.137084 v -16.11257 q 3.76786,1.58647 6.59376,1.58647 9.02304,0 11.70021,-10.16332 -4.85856,2.87548 -9.51882,2.87548 -6.89122,0 -11.35316,-5.10645 -4.46195,-5.156024 -4.46195,-13.088374 v -31.08487 h 18.54186 v 26.57335 q 0,4.41237 3.66871,4.41237 3.51997,0 3.51997,-4.85856 v -26.12716 h 18.54186 v 44.123664 q 0,12.34471 -6.9408,19.93002 -8.27939,9.02304 -20.02917,9.02304 -5.15602,0 -10.26247,-1.98309 z"
     id="text14-6"
     aria-label="ncludefy" />
</svg>
